<?xml version="1.0" encoding="UTF-8" standalone="no"?>
<!-- Created with Inkscape (http://www.inkscape.org/) -->

<svg
   xmlns:dc="http://purl.org/dc/elements/1.1/"
   xmlns:cc="http://creativecommons.org/ns#"
   xmlns:rdf="http://www.w3.org/1999/02/22-rdf-syntax-ns#"
   xmlns:svg="http://www.w3.org/2000/svg"
   xmlns="http://www.w3.org/2000/svg"
   xmlns:sodipodi="http://sodipodi.sourceforge.net/DTD/sodipodi-0.dtd"
   xmlns:inkscape="http://www.inkscape.org/namespaces/inkscape"
   width="71.360962mm"
   height="71.360962mm"
   viewBox="0 0 71.360962 71.360962"
   version="1.1"
   id="svg4610"
   inkscape:version="0.92.2 2405546, 2018-03-11"
   sodipodi:docname="not-supported-annotation.svg"
   inkscape:export-filename="/home/anton/Documents/Studium/WiSe18_19/BP/Code/kollaborierbar/client/src/not-supported-annotation.png"
   inkscape:export-xdpi="5.6949859"
   inkscape:export-ydpi="5.6949859">
  <defs
     id="defs4604" />
  <sodipodi:namedview
     id="base"
     pagecolor="#ffffff"
     bordercolor="#666666"
     borderopacity="1.0"
     inkscape:pageopacity="0.0"
     inkscape:pageshadow="2"
     inkscape:zoom="0.98994949"
     inkscape:cx="367.06943"
     inkscape:cy="7.829361"
     inkscape:document-units="mm"
     inkscape:current-layer="layer1"
     showgrid="false"
     fit-margin-top="0"
     fit-margin-left="0"
     fit-margin-right="0"
     fit-margin-bottom="0"
     inkscape:window-width="1920"
     inkscape:window-height="1080"
     inkscape:window-x="0"
     inkscape:window-y="0"
     inkscape:window-maximized="1" />
  <metadata
     id="metadata4607">
    <rdf:RDF>
      <cc:Work
         rdf:about="">
        <dc:format>image/svg+xml</dc:format>
        <dc:type
           rdf:resource="http://purl.org/dc/dcmitype/StillImage" />
        <dc:title></dc:title>
      </cc:Work>
    </rdf:RDF>
  </metadata>
  <g
     inkscape:label="Layer 1"
     inkscape:groupmode="layer"
     id="layer1"
     transform="translate(-109.71414,-160.29164)">
    <path
       style="opacity:1;vector-effect:none;fill:#b600b6;fill-opacity:1;stroke:#212121;stroke-width:0;stroke-linecap:butt;stroke-linejoin:miter;stroke-miterlimit:4;stroke-dasharray:none;stroke-dashoffset:0;stroke-opacity:1"
       d="m 121.25296,162.4298 c -5.20802,0 -9.40066,4.19264 -9.40066,9.40066 v 48.28338 c 0,5.20802 4.19264,9.40066 9.40066,9.40066 h 48.28338 c 5.20802,0 9.40066,-4.19264 9.40066,-9.40066 v -48.28338 c 0,-5.20802 -4.19264,-9.40066 -9.40066,-9.40066 z m 23.99886,3.80525 c 2.0489,-0.003 4.08857,0.16509 5.4317,0.50085 2.36292,0.62182 5.59648,2.13906 7.56144,3.60656 4.17863,3.05935 7.03871,8.70519 7.03871,13.87874 0,3.33295 -0.47249,3.93009 -4.00442,4.92501 -5.39741,1.54211 -14.25232,0.47268 -16.7396,-2.0146 -0.87055,-0.87055 -0.94488,-1.06982 -0.82052,-1.9155 0.17412,-1.01978 1.36782,-2.2881 2.16375,-2.2881 0.27359,0 1.44271,0.32345 2.58687,0.72141 2.28829,0.79593 4.87487,1.26841 6.88957,1.26841 1.76597,0 4.37771,-0.47268 4.70106,-0.84577 0.3731,-0.47258 -0.14904,-2.98463 -1.04446,-4.87497 -1.16902,-2.43753 -3.93011,-5.09913 -6.66611,-6.41738 -2.56191,-1.21877 -4.05437,-1.54192 -7.06398,-1.54192 -3.20859,0 -4.65093,0.32334 -7.28744,1.61673 -10.19786,5.0243 -10.32223,16.76437 -0.24873,22.36076 1.21877,0.67156 2.38789,1.49207 2.58687,1.81542 0.52233,0.77106 0.34792,1.54201 -2.91041,13.82919 -1.36801,5.1238 -2.48728,9.45206 -2.48728,9.6013 0,0.32334 20.04758,0.39778 20.24657,0.0496 0.0746,-0.0995 -1.04475,-4.55164 -2.46251,-9.84954 -3.33295,-12.38666 -3.48219,-13.13295 -3.1091,-14.02837 0.14923,-0.39797 0.52252,-0.84567 0.82099,-0.99491 1.04466,-0.5472 6.21801,-2.0146 7.13831,-2.0146 1.29338,0 2.11419,0.91991 2.11419,2.33766 0,1.39288 -0.37319,1.79103 -2.58687,2.81082 -1.01978,0.44771 -1.91482,0.87036 -1.96457,0.9201 -0.0249,0.0497 1.04457,4.22867 2.3877,9.25298 3.7558,13.95365 3.97945,14.92349 3.53174,15.71942 -0.22385,0.34823 -0.64669,0.72151 -0.99491,0.821 -0.34822,0.0995 -7.18805,0.17382 -15.22197,0.19869 l -14.60063,0.0253 -0.49746,-0.67185 c -0.29847,-0.34823 -0.59676,-0.89504 -0.67137,-1.21838 -0.0746,-0.32335 0.72121,-3.90543 1.89024,-8.35766 1.11928,-4.27812 2.48756,-9.52599 3.03477,-11.64019 l 0.99491,-3.83051 -0.72141,-0.64659 c -0.42283,-0.34822 -1.44281,-1.11928 -2.31336,-1.7411 -1.69135,-1.19389 -3.68118,-3.40757 -4.47711,-4.97456 -1.69134,-3.30809 -2.46231,-9.3274 -1.64151,-12.78473 1.44263,-6.09384 7.03901,-11.34191 13.92878,-13.083 1.38044,-0.34822 3.43867,-0.52252 5.48756,-0.52563 z"
       id="rect5205"
       inkscape:connector-curvature="0" />
  </g>
</svg>
