<?xml version="1.0" encoding="UTF-8" standalone="no"?>
<!-- Generator: Adobe Illustrator 22.1.0, SVG Export Plug-In . SVG Version: 6.00 Build 0)  -->

<svg
   xmlns:dc="http://purl.org/dc/elements/1.1/"
   xmlns:cc="http://creativecommons.org/ns#"
   xmlns:rdf="http://www.w3.org/1999/02/22-rdf-syntax-ns#"
   xmlns:svg="http://www.w3.org/2000/svg"
   xmlns="http://www.w3.org/2000/svg"
   xmlns:sodipodi="http://sodipodi.sourceforge.net/DTD/sodipodi-0.dtd"
   xmlns:inkscape="http://www.inkscape.org/namespaces/inkscape"
   version="1.1"
   id="Layer_1"
   x="0px"
   y="0px"
   viewBox="0 0 500 500"
   style="enable-background:new 0 0 500 500;"
   xml:space="preserve"
   sodipodi:docname="go-away.svg"
   inkscape:version="0.92.4 5da689c313, 2019-01-14"><metadata
   id="metadata31"><rdf:RDF><cc:Work
       rdf:about=""><dc:format>image/svg+xml</dc:format><dc:type
         rdf:resource="http://purl.org/dc/dcmitype/StillImage" /><dc:title></dc:title></cc:Work></rdf:RDF></metadata><defs
   id="defs29">
	
	
	
	
</defs><sodipodi:namedview
   pagecolor="#ffffff"
   bordercolor="#666666"
   borderopacity="1"
   objecttolerance="10"
   gridtolerance="10"
   guidetolerance="10"
   inkscape:pageopacity="0"
   inkscape:pageshadow="2"
   inkscape:window-width="958"
   inkscape:window-height="1041"
   id="namedview27"
   showgrid="false"
   inkscape:pagecheckerboard="true"
   inkscape:zoom="0.472"
   inkscape:cx="269.0261"
   inkscape:cy="250"
   inkscape:window-x="960"
   inkscape:window-y="39"
   inkscape:window-maximized="0"
   inkscape:current-layer="Layer_1" />
<style
   type="text/css"
   id="style2">
	.st0{fill:#F38082;}
	.st1{fill:#F8C4D5;}
	.st2{fill:#FFFFFF;}
</style>
<path
   style="vector-effect:none;fill:#343a40;fill-opacity:1;stroke-width:0.73634517;stroke-linecap:butt;stroke-linejoin:miter;stroke-miterlimit:4;stroke-dasharray:none;stroke-dashoffset:0;stroke-opacity:1"
   d="m 322.01902,96.30504 c -3.77995,0.006 -7.46282,0.288172 -11.05251,0.840431 -24.66756,3.755359 -44.84328,20.250739 -61.85286,46.759179 -4.78623,-5.44896 -7.21717,-8.76272 -10.16255,-11.63446 -1.03088,-0.95726 -1.98723,-1.76835 -3.01811,-2.7256 -26.8766,-24.9621 -54.78427,-35.26971 -80.77725,-30.188928 -8.98341,1.767228 -17.67293,5.301088 -26.06726,10.676398 -33.798247,21.64856 -46.610666,70.09982 -31.36832,114.86962 13.69602,40.20444 41.67818,69.51105 72.38378,96.53492 24.37303,21.42765 49.26088,42.04617 68.03768,69.07003 3.46082,5.00715 6.99535,8.61441 10.7507,10.82345 8.32071,5.00714 17.15744,2.20977 26.58266,-9.79265 34.90276,-44.32798 71.13033,-87.62634 105.29676,-132.5434 21.42764,-28.20201 34.82903,-60.45311 24.0784,-96.60766 -9.42523,-31.81013 -30.04309,-56.03581 -63.105,-63.767438 -6.85721,-1.564734 -13.4262,-2.323959 -19.72612,-2.313892 z m -37.51599,80.06218 c 3.01816,-0.005 6.16543,0.36011 9.45058,1.10974 15.83928,3.70407 25.71684,15.31 30.23227,30.54956 5.15041,17.32089 -1.26987,32.77146 -11.53541,46.28247 -16.36842,21.51883 -33.72472,42.2615 -50.44592,63.49812 -4.51543,5.75012 -8.74864,7.09006 -12.73491,4.69124 -1.79912,-1.0583 -3.49292,-2.78615 -5.15093,-5.18497 -8.99558,-12.94658 -20.91907,-22.82387 -32.59569,-33.08942 -14.71041,-12.94657 -28.11592,-26.98729 -34.6774,-46.24842 -7.3023,-21.44827 -1.16336,-44.66054 15.02868,-55.03191 4.02155,-2.57521 8.18351,-4.26868 12.48727,-5.11533 12.4527,-2.43409 25.82246,2.50494 38.69848,14.46376 0.49388,0.4586 0.95327,0.8477 1.44715,1.3063 1.41107,1.3758 2.5747,2.96299 4.86768,5.57347 8.14895,-12.69964 17.81556,-20.60152 29.63329,-22.40064 1.71974,-0.26457 3.48396,-0.40107 5.29486,-0.40397 z"
   id="path8"
   inkscape:connector-curvature="0" />
</svg>